<?xml version="1.0" encoding="UTF-8" standalone="no"?>
<svg
   enable-background="new 0 0 100 100"
   viewBox="0 0 100 100"
   version="1.1"
   id="svg6"
   sodipodi:docname="arrow.svg"
   inkscape:version="1.2.1 (9c6d41e410, 2022-07-14)"
   xmlns:inkscape="http://www.inkscape.org/namespaces/inkscape"
   xmlns:sodipodi="http://sodipodi.sourceforge.net/DTD/sodipodi-0.dtd"
   xmlns="http://www.w3.org/2000/svg"
   xmlns:svg="http://www.w3.org/2000/svg">
  <defs
     id="defs10" />
  <sodipodi:namedview
     id="namedview8"
     pagecolor="#ffffff"
     bordercolor="#000000"
     borderopacity="0.25"
     inkscape:showpageshadow="2"
     inkscape:pageopacity="0.0"
     inkscape:pagecheckerboard="0"
     inkscape:deskcolor="#d1d1d1"
     showgrid="false"
     inkscape:zoom="9.44"
     inkscape:cx="24.523305"
     inkscape:cy="60.222458"
     inkscape:window-width="2560"
     inkscape:window-height="1494"
     inkscape:window-x="-11"
     inkscape:window-y="1629"
     inkscape:window-maximized="1"
     inkscape:current-layer="svg6" />
  <path
     d="m30.729,57.915 17.824,21.414c.438.524.951.715 1.447.681 .496.034 1.011-.156 1.447-.681l17.824-21.414c1.1-1.319.461-3.494-1.446-3.494h-7.479v-32.386c0-1.116-.931-2.047-2.047-2.047h-16.598c-1.116,0-2.047.931-2.047,2.047v32.386h-7.479c-1.907,0-2.546,2.175-1.446,3.494z"
     id="path2" />
  <path
     d="m50 100c27.614 0 50-22.386 50-50s-22.386-50-50-50-50 22.386-50 50 22.386 50 50 50zm0-92c23.196 0 42 18.804 42 42s-18.804 42-42 42-42-18.805-42-42c0-23.196 18.805-42 42-42z"
     id="path4" />
  <path
     style="fill:#ffffff;stroke-width:0.105932"
     d="M 47.112603,99.941255 C 37.397391,99.388862 27.895939,95.928943 20.127119,90.114588 16.398614,87.324093 12.675907,83.601386 9.8854124,79.872881 7.2022094,76.287734 5.0437307,72.397321 3.3909636,68.167373 -2.8687911,52.146705 -0.39755342,33.866648 9.8854124,20.127119 12.686936,16.383877 16.383877,12.686936 20.127119,9.8854124 30.420311,2.1817612 43.496068,-1.2573072 56.289212,0.37438256 65.880409,1.5976829 74.57094,5.4017968 82.20339,11.717819 c 1.365359,1.129865 4.948926,4.713432 6.078791,6.078791 2.952194,3.567511 5.341141,7.323888 7.12407,11.201879 7.710849,16.771619 5.655579,36.269622 -5.373806,50.980325 -2.756449,3.676481 -6.442268,7.353668 -10.159564,10.135774 -9.36852,7.011605 -20.985403,10.496172 -32.760278,9.826667 z m 5.323838,-8.048773 C 66.867761,91.030318 79.645058,82.996422 86.715631,70.338983 93.907887,57.463716 93.686992,41.387617 86.142866,28.654661 81.237327,20.375106 73.658323,14.028351 64.655822,10.661136 53.742287,6.5791354 41.317425,7.2967771 30.932203,12.608963 22.498349,16.922997 15.695262,24.022518 11.813672,32.560555 6.0133113,45.319163 6.9422889,60.186549 14.280816,72.044818 c 5.950954,9.616099 15.466633,16.403325 26.503082,18.903789 3.757032,0.85121 7.766887,1.176014 11.652543,0.943875 z"
     id="path345" />
  <path
     style="fill:#ffffff;stroke-width:0.105932"
     d="M 49.088759,79.793432 C 48.809288,79.608373 33.658891,61.570705 30.938732,58.184482 c -0.687858,-0.856288 -0.899401,-1.546485 -0.700447,-2.285341 0.159871,-0.593716 0.732854,-1.221612 1.258483,-1.379095 0.282861,-0.08475 1.638856,-0.12386 4.294124,-0.12386 H 39.67161 V 37.983591 c 0,-11.338653 0.03483,-16.504787 0.112672,-16.710805 0.160184,-0.423963 0.612356,-0.875392 1.105549,-1.103733 0.40155,-0.185912 0.878376,-0.19618 9.110169,-0.19618 8.231793,0 8.708619,0.01027 9.11017,0.19618 0.493192,0.228341 0.945364,0.67977 1.105548,1.103733 0.07784,0.206018 0.112672,5.372152 0.112672,16.710805 v 16.412595 l 3.945974,0.0023 c 3.599185,0.0021 3.983599,0.01942 4.374086,0.19679 1.28271,0.582655 1.55656,2.152548 0.588944,3.376233 -0.823739,1.041735 -17.425586,20.965597 -17.793472,21.353933 -0.21153,0.223287 -0.513323,0.473551 -0.670653,0.556144 -0.44634,0.234312 -1.26197,0.191615 -1.68451,-0.08818 z"
     id="path347" />
</svg>
